<svg width="52" height="20" viewBox="0 0 52 20" fill="none" xmlns="http://www.w3.org/2000/svg">
<path d="M8.825 19.5C7.575 19.5 6.41667 19.275 5.35 18.825C4.3 18.3583 3.38333 17.7083 2.6 16.875C1.83333 16.0417 1.23333 15.0667 0.8 13.95C0.366667 12.8167 0.15 11.5833 0.15 10.25C0.15 9.18333 0.291667 8.175 0.575 7.225C0.858333 6.25833 1.25833 5.38333 1.775 4.6C2.30833 3.8 2.93333 3.11667 3.65 2.55C4.36667 1.96667 5.15833 1.525 6.025 1.225C6.90833 0.908333 7.84167 0.75 8.825 0.75C9.975 0.75 11.0417 0.958333 12.025 1.375C13.025 1.775 13.8833 2.35 14.6 3.1C15.3333 3.83333 15.8833 4.70833 16.25 5.725L13.325 6.55C12.8917 5.6 12.275 4.86667 11.475 4.35C10.6917 3.81667 9.8 3.55 8.8 3.55C8.01667 3.55 7.29167 3.71667 6.625 4.05C5.95833 4.38333 5.375 4.85 4.875 5.45C4.375 6.05 3.98333 6.75833 3.7 7.575C3.43333 8.39167 3.3 9.275 3.3 10.225C3.3 11.175 3.43333 12.05 3.7 12.85C3.98333 13.6333 4.36667 14.3167 4.85 14.9C5.35 15.4667 5.93333 15.9083 6.6 16.225C7.28333 16.5417 8.03333 16.7 8.85 16.7C9.88333 16.7 10.7917 16.4417 11.575 15.925C12.375 15.4083 13.0167 14.6667 13.5 13.7L16.425 14.525C16.0417 15.5417 15.4833 16.425 14.75 17.175C14.0167 17.925 13.1417 18.5 12.125 18.9C11.1083 19.3 10.0083 19.5 8.825 19.5ZM22.9826 19.375C22.316 19.375 21.6993 19.275 21.1326 19.075C20.5826 18.875 20.0993 18.5917 19.6826 18.225C19.266 17.8583 18.941 17.425 18.7076 16.925C18.4743 16.425 18.3576 15.875 18.3576 15.275C18.3576 14.4417 18.5743 13.7167 19.0076 13.1C19.4576 12.4667 20.0826 11.975 20.8826 11.625C21.6826 11.275 22.616 11.1 23.6826 11.1C24.266 11.1 24.8243 11.1583 25.3576 11.275C25.891 11.375 26.3993 11.525 26.8826 11.725V10.9C26.8826 10.3167 26.7743 9.80833 26.5576 9.375C26.341 8.925 26.0326 8.575 25.6326 8.325C25.2326 8.075 24.7493 7.95 24.1826 7.95C23.5826 7.95 23.041 8.10833 22.5576 8.425C22.0743 8.74167 21.716 9.18333 21.4826 9.75L18.8326 9.15C19.0326 8.41667 19.391 7.78333 19.9076 7.25C20.441 6.71667 21.0743 6.3 21.8076 6C22.5576 5.7 23.366 5.55 24.2326 5.55C25.0493 5.55 25.791 5.68333 26.4576 5.95C27.141 6.21667 27.7243 6.59167 28.2076 7.075C28.691 7.55833 29.066 8.13333 29.3326 8.8C29.5993 9.46667 29.7326 10.2083 29.7326 11.025V19H27.1076L27.0076 17.275C26.6576 17.9083 26.1326 18.4167 25.4326 18.8C24.7326 19.1833 23.916 19.375 22.9826 19.375ZM21.2576 15.15C21.2576 15.5167 21.3576 15.85 21.5576 16.15C21.7576 16.4333 22.0326 16.6583 22.3826 16.825C22.7493 16.9917 23.1743 17.075 23.6576 17.075C24.2743 17.075 24.8243 16.9417 25.3076 16.675C25.791 16.4083 26.1743 16.05 26.4576 15.6C26.741 15.1333 26.8826 14.6083 26.8826 14.025V13.725C26.4493 13.5417 25.9993 13.4 25.5326 13.3C25.0826 13.1833 24.616 13.125 24.1326 13.125C23.266 13.125 22.566 13.3083 22.0326 13.675C21.516 14.0417 21.2576 14.5333 21.2576 15.15ZM32.8254 19V5.925H35.4504L35.5754 8.075C35.9087 7.34167 36.3671 6.775 36.9504 6.375C37.5504 5.95833 38.2504 5.75 39.0504 5.75C39.3004 5.75 39.5421 5.76667 39.7754 5.8C40.0087 5.83333 40.2171 5.89167 40.4004 5.975L40.0754 8.775C39.8921 8.70833 39.7004 8.66667 39.5004 8.65C39.3004 8.61667 39.1004 8.6 38.9004 8.6C37.9004 8.6 37.1171 8.93333 36.5504 9.6C35.9837 10.2667 35.7004 11.1917 35.7004 12.375V19H32.8254ZM48.3084 19.375C46.9917 19.375 45.9584 19 45.2084 18.25C44.4584 17.4833 44.0834 16.3917 44.0834 14.975V8.25H41.7834V5.925H44.0834V1.5H46.9584V5.925H50.7584V8.25H46.9584V14.675C46.9584 15.375 47.1001 15.9167 47.3834 16.3C47.6834 16.6667 48.1167 16.85 48.6834 16.85C48.9834 16.85 49.3084 16.8083 49.6584 16.725C50.0084 16.625 50.3334 16.4917 50.6334 16.325L51.2834 18.5C50.9001 18.7667 50.4501 18.975 49.9334 19.125C49.4334 19.2917 48.8917 19.375 48.3084 19.375Z" fill="black"/>
</svg>
